<?xml version="1.0" encoding="UTF-8"?>
<svg version="1.1" xmlns="http://www.w3.org/2000/svg" width="38" height="47">
<path d="M0 0 C1.98 0 3.96 0 6 0 C6.33 2.31 6.66 4.62 7 7 C7.20625 6.360625 7.4125 5.72125 7.625 5.0625 C9 3 9 3 11.9375 2.125 C15 2 15 2 18 4 C18.1875 7.125 18.1875 7.125 18 10 C21.60992379 9.34414811 21.60992379 9.34414811 25 8 C26.54613014 8.08651631 28.08909387 8.24002636 29.625 8.4375 C30.44226562 8.53933594 31.25953125 8.64117187 32.1015625 8.74609375 C32.72804687 8.82988281 33.35453125 8.91367188 34 9 C34 9.99 34 10.98 34 12 C31.69 12.33 29.38 12.66 27 13 C26.7525 13.70125 26.505 14.4025 26.25 15.125 C24.83911974 18.37002459 23.02104602 21.10316737 21 24 C17.65626525 23.44271087 14.96687001 22.64826111 12 21 C11.67 21.99 11.34 22.98 11 24 C11.54269531 24.23074219 12.08539062 24.46148438 12.64453125 24.69921875 C17.09789094 26.72930884 20.14894177 28.1872486 22 33 C21.67 33.99 21.34 34.98 21 36 C19.0530104 36.72599612 17.10338852 37.44633067 15.13671875 38.1171875 C10.68253796 39.95748889 7.66243816 43.00634276 5 47 C3.68 47 2.36 47 1 47 C-0.0070238 41.96488101 0.02612187 38.76052962 2 34 C1.195625 33.21625 0.39125 32.4325 -0.4375 31.625 C-3.32841775 28.66357206 -3.91887147 27.99382452 -4.25 23.9375 C-3.99397018 19.90503038 -3.08801007 16.89752562 -1.734375 13.13671875 C-0.23894182 8.78564456 0.13448035 4.5723318 0 0 Z " fill="#B5B5B5" transform="translate(4,0)"/>
</svg>
